<?xml version="1.0" standalone="no"?>
<!DOCTYPE svg PUBLIC "-//W3C//DTD SVG 20010904//EN"
 "http://www.w3.org/TR/2001/REC-SVG-20010904/DTD/svg10.dtd">
<svg version="1.0" xmlns="http://www.w3.org/2000/svg"
 width="850.000000pt" height="850.000000pt" viewBox="0 0 850.000000 850.000000"
 preserveAspectRatio="xMidYMid meet">
<metadata>
Created by potrace 1.14, written by Peter Selinger 2001-2017
</metadata>
<g transform="translate(0.000000,850.000000) scale(0.100000,-0.100000)"
fill="#000000" stroke="none">
<path d="M5325 5181 c-30 -9 -58 -32 -80 -66 -15 -23 -20 -53 -23 -132 -4 -87
-7 -103 -21 -103 -21 0 -59 -34 -104 -93 -21 -27 -37 -44 -37 -39 0 25 -142
138 -217 173 -174 78 -411 79 -573 2 -98 -47 -186 -118 -244 -195 l-28 -38
-69 69 c-75 77 -136 122 -188 139 -24 9 -192 12 -578 12 -577 0 -595 -1 -629
-48 -12 -16 -14 -15 -32 6 -11 12 -24 22 -30 22 -6 0 -12 6 -14 13 -4 9 -86
12 -369 12 -200 0 -380 -4 -399 -8 -19 -4 -60 -24 -90 -44 -60 -40 -176 -153
-196 -191 l-12 -24 -28 37 c-242 314 -714 354 -991 86 -38 -36 -80 -82 -95
-101 -105 -142 -147 -334 -114 -513 30 -157 80 -253 188 -358 118 -114 196
-155 358 -187 65 -13 213 -6 285 12 131 34 211 81 312 184 35 35 63 57 64 50
6 -113 66 -202 143 -213 22 -4 210 -5 416 -3 373 3 375 3 418 27 24 13 63 44
89 69 40 40 46 44 55 28 5 -9 35 -42 65 -71 68 -65 83 -69 288 -63 117 3 148
6 161 20 15 15 20 14 61 -4 41 -18 60 -19 246 -14 111 3 218 5 237 4 19 -1
114 -2 210 -3 173 0 176 0 207 25 36 29 55 64 73 137 l14 53 30 -33 c61 -65
164 -127 271 -163 78 -26 267 -31 357 -8 40 10 77 21 82 26 6 4 18 8 27 8 23
0 161 94 203 139 76 80 96 106 124 165 39 80 49 108 66 186 l14 65 1 -130 c1
-145 14 -204 58 -263 15 -20 30 -39 33 -42 3 -3 18 -23 35 -45 32 -43 75 -82
87 -78 5 2 8 -1 8 -7 0 -5 25 -17 55 -25 45 -13 97 -16 290 -13 l235 3 40 41
c35 35 42 48 47 95 3 30 7 56 9 58 2 3 16 -9 32 -25 75 -82 181 -137 315 -165
73 -15 135 -19 296 -19 126 0 218 4 243 12 23 7 59 31 88 61 39 39 50 58 56
93 3 24 8 44 10 44 2 0 35 -30 73 -67 38 -38 95 -84 127 -103 l58 -35 341 0
c449 0 423 -18 425 293 1 178 -1 198 -20 237 -34 71 -61 79 -292 85 -135 3
-201 9 -209 17 -20 20 0 22 216 25 174 3 204 6 230 22 55 34 68 62 73 151 l4
81 85 -3 c83 -2 153 14 161 37 2 6 8 10 14 10 6 0 19 10 29 22 17 19 19 40 19
202 l0 181 -34 29 c-42 36 -85 51 -154 55 -113 6 -190 -36 -258 -139 l-25 -37
-277 -6 c-315 -8 -345 -14 -431 -79 -60 -47 -168 -151 -193 -187 l-16 -23 -30
44 c-95 139 -230 224 -417 263 -90 19 -148 19 -243 -1 -115 -24 -211 -74 -292
-153 -13 -13 -15 -12 -18 11 -4 36 -75 105 -120 118 -20 5 -56 10 -78 10 l-42
0 -4 103 c-4 109 -12 130 -67 173 -24 17 -45 19 -241 20 -118 1 -224 -1 -235
-5z m-745 -874 c0 -15 -5 -38 -11 -49 -11 -21 -12 -21 -25 -3 -17 23 -18 69
-3 97 11 21 12 21 25 3 8 -10 14 -32 14 -48z m-3730 -48 c0 -37 -9 -59 -25
-59 -26 0 -36 85 -13 108 17 17 38 -11 38 -49z m5118 -17 c3 -29 1 -32 -26
-32 -63 0 -92 11 -92 36 0 20 6 23 48 27 66 5 67 4 70 -31z"/>
</g>
</svg>
